<svg width="250" height="325" viewBox="0 0 250 325" fill="none" xmlns="http://www.w3.org/2000/svg">
<path d="M13.3867 182.197L13.3311 182.074L0.425781 153.683V29.0732L28.5791 0.351562H235.3L249.18 28.9609V113.265L235.218 129.507L235.066 129.682V298.365L198.628 323.702H73.2939V305.913L73.1006 305.729L59.4199 292.723L59.2393 292.551H27.4688L13.3867 278.843V182.197Z" fill="url(#paint0_linear_2467_107)" stroke="white" stroke-width="1.24605"/>
<rect x="7.86705" y="36.0194" width="14.4009" height="114.631" rx="2.30415" fill="black" stroke="#D9D9D9" stroke-width="1.15207"/>
<path d="M17.5947 121.134L16.6834 121.617H13.6694L12.7547 121.134V117.776H13.6694V120.702H16.6834V117.776H17.5947V121.134ZM13.6694 116.393V116.396L12.7547 115.913V113.038L13.6694 112.555H16.6834L17.5947 113.038V115.913L16.6834 116.396L13.6694 116.393ZM16.6834 115.481V113.466H13.6694V115.481H16.6834ZM17.5947 110.747V111.175H13.6694L12.866 110.75L12.7547 110.693V109.896L15.0397 108.688L12.7547 107.479V106.683L12.866 106.625L13.6694 106.2H17.5947V106.629L16.6834 107.111H13.7875L15.9004 108.232V109.143L13.7875 110.261H16.6834L17.5947 110.747ZM17.5947 104.392V104.82H13.6694L12.866 104.395L12.7547 104.338V100.979H13.2812H14.1925L15.2456 101.536L15.9139 101.891L16.1569 102.019V103.906H16.6834L17.5947 104.392ZM13.6694 103.906H15.2456V102.448L14.1925 101.891H13.6694V103.906ZM17.5947 99.1102L16.6834 99.5929H13.6694L12.7547 99.1102V95.7519H13.6694V98.6782H14.719V96.5383H15.6304V98.6782H16.6834V95.7519H17.5947V99.1102ZM13.6694 92.9072V94.3721L12.866 93.9468L12.7547 93.8894L12.7547 90.5311H13.6694V91.9959H16.6834L17.5947 92.4786V92.9072H13.6694ZM17.5947 88.6686L16.6834 89.1513H12.7547V88.2366H17.5947V88.6686ZM13.6694 85.3886V86.8534L12.866 86.4282L12.7547 86.3708V83.0124H13.6694V84.4773H16.6834L17.5947 84.9599V85.3886H13.6694ZM17.5947 81.15L16.6834 81.6327H12.7547V80.718H17.5947V81.15ZM13.6694 79.3314V79.3348L12.7547 78.8522V75.9765L13.6694 75.4938H16.6834L17.5947 75.9765V78.8522L16.6834 79.3348L13.6694 79.3314ZM16.6834 78.4201V76.4051H13.6694V78.4201H16.6834ZM17.5947 73.6854V74.114H13.6694L12.866 73.6887L12.7547 73.6314V72.8348L15.8734 71.1843H13.6694L12.866 70.7624L12.7547 70.7017V70.273H16.6834L17.5947 70.7557V71.1843L13.7875 73.1993H16.6834L17.5947 73.6854ZM17.5947 68.8932H16.6834V65.9636H15.6304V68.4106L15.519 68.468L14.719 68.8932H13.6694L12.866 68.468L12.7547 68.4106V65.0522H13.6694V67.9786H14.719V65.5349L14.8304 65.4775L15.6304 65.0522H16.6834L17.4833 65.4775L17.5947 65.5349V68.8932Z" fill="white"/>
<defs>
<linearGradient id="paint0_linear_2467_107" x1="124.803" y1="-0.271484" x2="124.803" y2="324.325" gradientUnits="userSpaceOnUse">
<stop offset="0.524038"/>
<stop offset="1" stop-color="#6C36E2"/>
</linearGradient>
</defs>
</svg>
